<?xml version="1.0" encoding="UTF-8" standalone="no"?>
<svg width="72px" height="72px" viewBox="0 0 72 72" version="1.1" xmlns="http://www.w3.org/2000/svg" xmlns:xlink="http://www.w3.org/1999/xlink">
    <!-- Generator: Sketch 39.1 (31720) - http://www.bohemiancoding.com/sketch -->
    <title>ic_claster</title>
    <desc>Created with Sketch.</desc>
    <defs></defs>
    <g id="v11" stroke="none" stroke-width="1" fill="none" fill-rule="evenodd">
        <g id="Assets" transform="translate(-520.000000, -759.000000)">
            <g id="actions"></g>
            <g id="ic_claster" transform="translate(520.000000, 759.000000)">
                <circle id="Oval-2" fill="#FAF8F4" opacity="0.300000012" cx="36" cy="36" r="36"></circle>
                <path d="M12,36 C12,22.745166 22.745166,12 36,12 C49.254834,12 60,22.745166 60,36 C60,49.254834 49.254834,60 36,60 C22.745166,60 12,49.254834 12,36 Z" id="Oval" fill="#F9F8F4"></path>
                <path d="M54,36 C54,26.0588745 45.9411255,18 36,18 C26.0588745,18 18,26.0588745 18,36 C18,45.9411255 26.0588745,54 36,54 C45.9411255,54 54,45.9411255 54,36 Z M12,36 C12,22.745166 22.745166,12 36,12 C49.254834,12 60,22.745166 60,36 C60,49.254834 49.254834,60 36,60 C22.745166,60 12,49.254834 12,36 Z" id="Oval" fill="#85B1D7"></path>
            </g>
        </g>
    </g>
</svg>